<svg width="242" height="347" viewBox="0 0 242 347" fill="none" xmlns="http://www.w3.org/2000/svg">
<path d="M66.5266 257.008C77.2239 270.395 88.1188 287.228 93.8203 297.395C100.764 310.613 103.643 319.538 108.808 335.523C111.828 344.278 114.707 346.933 120.747 346.933C127.352 346.933 130.372 342.471 132.686 335.523C137.513 320.526 141.238 309.116 147.138 298.243C169.887 255.314 206.975 224.812 227.861 183.013C227.861 183.013 241.607 157.481 241.607 121.726C241.607 88.3996 228.059 65.2406 228.059 65.2406L66.6113 257.291L66.5266 257.008Z" fill="#34A853"/>
<path d="M11.7699 178.494C24.7816 208.149 49.5915 234.132 66.5266 257.008L156.282 150.533C156.282 150.533 143.609 167.14 120.719 167.14C95.2033 167.14 74.4296 146.805 74.4296 121.105C74.4296 103.425 84.9576 91.1674 84.9576 91.1674C18.9108 100.996 22.5801 117.009 11.5723 178.437L11.7699 178.494Z" fill="#FBBC04"/>
<path d="M157.411 5.56381C187.33 15.1946 212.733 35.5011 227.974 65.1559L156.282 150.731C156.282 150.731 166.81 138.417 166.81 120.794C166.81 94.5565 144.682 74.7584 120.803 74.7584C98.1387 74.7584 85.2398 91.1674 85.2398 91.1674C90.7437 78.6276 147.617 9.82845 157.496 5.59205L157.411 5.56381Z" fill="#4285F4"/>
<path d="M28.1404 43.2113C45.9787 21.9728 77.2521 0 120.437 0C141.295 0 157.129 5.53556 157.129 5.53556L85.1552 91.1109C80.3004 88.4758 32.9387 51.5711 28.1404 43.0983V43.2113Z" fill="#1A73E8"/>
<path d="M11.7699 178.494C11.7699 178.494 0 155.109 0 121.444C0 89.5293 12.4755 61.569 28.2251 43.4937L85.2398 91.5063L11.8545 178.494H11.7699Z" fill="#EA4335"/>
</svg>
